<svg t="1727246499858" class="icon" viewBox="0 0 1024 1024" version="1.1" xmlns="http://www.w3.org/2000/svg" p-id="12296" width="32" height="32"><path d="M800 704h-32v-32h32v32z m-32 32h-32v-32h32v32z m-32 32h-32v-32h32v32z m-32 32h-32v-32h32v32z m-32 32h-32v-32h32v32z m-32 32h-32v-32h32v32z m-32 32h-32v-32h32v32z m-32 32h-32v-32h32v32z m-32 32h-64v-32h64v32z m-64-32h-32v-32h32v32z m-32-32h-32v-32h32v32z m-32-32h-32v-32h32v32z m-32-32h-32v-32h32v32z m-32-32h-32v-32h32v32z m-32-32H288v-32h32v32zM128 192H96V160h32v32z m32-32H96V128h64v32z m384 64h-64V192h64v32z m160-96h-160V96h160v32z m-128 64h-128V160h128v32z m32-32h-192V128h192v32z m-128-32h-160V96h160v32zM256 128H96V96h160v32zM64 256V128h32v128H64z m0-64v288H32V192h32z m-64 256V256h32v192H0z m288 288H256v-32h32v32z m-32-32H224v-32h32v32z m-32-32H192v-32h32v32z m-32-32H160v-32h32v32z m-32-32H128v-32h32v32z m-32-32H96v-32h32v32z m-32-32H64v-32h32v32z m-32-32H32v-32h32v32z m736 160v-64h32v64h-32z m32-32v-64h32v64h-32z m32-32v-64h32v64h-32z m32-32v-64h32v64h-32z m32-32v-64h32v64h-32z m32-32V256h32v256h-32z m32-64V256h32v192h-32z m0-192h-64V224h64v32z m0-32h-64V192h64v32z m-32-32h-64V160h64v32z m0-32h-96V128h96v32z m-32-32h-160V96h160v32z m-64-32h-256V64h256v32zM416 96H160V64h256v32z" fill="#0A0404" p-id="12297"></path><path d="M448 640h-32v-32h32v32z m-64-64h96v32h-96v-32z m96 0h-128v-32h128v32z m-160-64h128v32h-128v-32z m96 0H288v-32h128v32z m-32-32H256v-32h128v32z m-32-32H224v-32h128v32z m-32-32H192v-32h128v32z m-32-32H192v-32h96v32z m0-32H192v-32h96v32z m0-32H192V288h96v32z m0-32H192V256h96v32z" fill="#E97357" p-id="12298"></path><path d="M64 384v-64h32v64H64z m128-128v160H160V256h32z m-64 160V256h32v160H128z m0-160v160H96V256h32z m-32 160h128v32H96v-32z m160 64H128v-32h128v32z m-128 0h160v32H128v-32z m192 64H160v-32h160v32z m-128 0h160v32H192v-32z m192 64H224v-32h160v32z m-128 0h160v32H256v-32z m224 224h64v32h-64v-32z m96 0h-128v-32h128v32z m-160-64h192v32h-192v-32z m224 0h-256v-32h256v32z m-288-64h320v32H352v-32z m352 0H320v-32h384v32zM288 640h448v32H288v-32z m480 0H448v-32h320v32z m-288-64h320v32H480v-32z m352 0H480v-32h352v32z m32-32H448v-32h416v32z m-448-64h480v32H416v-32z m512 0H384v-32h544v32z m-576-64h576v32H352v-32z m576 0H320v-32h608v32zM288 352h672v32H288v-32z m672 0H288v-32h672v32zM288 288h672v32H288V288z m640 0H288V256h640v32zM544 224h384v32H544V224z m352 0H576V192h320v32z m-288-64h256v32h-256V160z m224 0h-160V128h160v32zM480 256H96V224h384v32z m0-32H128V192h352v32z m-64-32H160V160h256v32z m-32-32H224V128h160v32z" fill="#EE162B" p-id="12299"></path><path d="M928 416v-32h32v32h-32z m0-128V256h32v32h-32z m-32-64V192h32v32h-32z m-32-32V160h32v32h-32z m-192-32h-64V128h64v32z m-64 32h-32V160h32v32z m-32 32h-32V192h32v32z m-32 32h-64V224h64v32z m-128-64V160h32v32h-32z m-32-32V128h32v32h-32zM224 128v32H192V128h32zM128 192v32H96V192h32z m32-32v32H128V160h32zM96 480v-32h32v32H96z m-32-64v-32h32v32H64z m32-160v64H64V256h32z" fill="#B11020" p-id="12300"></path><path d="M864 160h-32V128h32v32z m-96-32h-64V96h64v32zM320 128H256V96h64v32zM192 160H160V128h32v32z m768 256v64h-32v-64h32z m-32 64v32h-32v-32h32z m-32 32v32h-32v-32h32z m-32 32v32h-32v-32h32z m-32 32v32h-32v-32h32z m-32 32v64h-32v-64h32z m-32 32v64h-32v-64h32z m-32 32v64h-32v-64h32z m-32 32v64h-32v-64h32z m-32 32v64h-32v-64h32z m-32 32v64h-32v-64h32z m-32 32v64h-32v-64h32z m-32 32v64h-32v-64h32z m-64 96v-64h32v64h-32z m-32 0v-64h32v64h-32z m-32-32v-64h32v64h-32z m-32-32v-64h32v64h-32z m-32-32v-64h32v64h-32z m-32-32v-64h32v64h-32z m-32-32v-64h32v64h-32z m-32-32v-64h32v64H288z m-32-32v-64h32v64H256z m-32-32v-64h32v64H224z m-32-32v-64h32v64H192z m-32-32v-64h32v64H160z m-32-32v-64h32v64H128z m-32-32v-64h32v64H96z m-32-32v-96h32v96H64z" fill="#280809" p-id="12301"></path></svg>